<svg xmlns="http://www.w3.org/2000/svg" xmlns:xlink="http://www.w3.org/1999/xlink" version="1.1" x="0px" y="0px" viewBox="0 0 100 125" enable-background="new 0 0 100 100" xml:space="preserve"><circle cx="50" cy="50" r="8.268"/><path d="M90.141,47.001C83.922,40.911,68.295,27.667,50,27.667S16.078,40.911,9.859,47.001c-1.685,1.65-1.685,4.347,0,5.998  C16.078,59.089,31.705,72.333,50,72.333s33.922-13.244,40.141-19.335C91.826,51.349,91.826,48.651,90.141,47.001z M50,65.926  c-8.796,0-15.926-7.13-15.926-15.926S41.204,34.074,50,34.074S65.926,41.204,65.926,50S58.796,65.926,50,65.926z"/><text x="0" y="115" fill="#000000" font-size="5px" font-weight="bold" font-family="'Helvetica Neue', Helvetica, Arial-Unicode, Arial, Sans-serif"></text><text x="0" y="120" fill="#000000" font-size="5px" font-weight="bold" font-family="'Helvetica Neue', Helvetica, Arial-Unicode, Arial, Sans-serif"></text></svg>